/* XPM */
static char *collectible[] = {
/* columns rows colors chars-per-pixel */
"64 64 130 2 ",
"   c #000000",
".  c #041E22",
"X  c #072124",
"o  c #092024",
"O  c #112326",
"+  c #1D3033",
"@  c #232A2C",
"#  c #383031",
"$  c #3A4C4F",
"%  c #784D48",
"&  c #BD0E1D",
"*  c #AC131C",
"=  c #B3131E",
"-  c #B21B23",
";  c #B52026",
":  c #B9242A",
">  c #BF2B30",
",  c #CF071D",
"<  c #C10C1D",
"1  c #CC091D",
"2  c #D4061D",
"3  c #DB051E",
"4  c #D2081E",
"5  c #CD0E20",
"6  c #DD0720",
"7  c #D40C21",
"8  c #DD0A22",
"9  c #CD1425",
"0  c #D31225",
"q  c #D91125",
"w  c #DD1529",
"e  c #D51E2C",
"r  c #DE1C2D",
"t  c #E00C25",
"y  c #E01127",
"u  c #E1152A",
"i  c #E0182C",
"p  c #C7232C",
"a  c #CE232E",
"s  c #D4202D",
"d  c #DA212F",
"f  c #C42F34",
"g  c #CD2932",
"h  c #D12732",
"j  c #DC2633",
"k  c #D52C36",
"l  c #D92935",
"z  c #D62F38",
"x  c #DB2E38",
"c  c #C53336",
"v  c #C7373A",
"b  c #CF363A",
"n  c #CB3A3C",
"m  c #D43339",
"M  c #D9353C",
"N  c #D4393D",
"B  c #E02031",
"V  c #E02936",
"C  c #E2323D",
"Z  c #CE3F40",
"A  c #D93C41",
"S  c #E13B42",
"D  c #82524B",
"F  c #865A54",
"G  c #905850",
"H  c #9A5B52",
"J  c #AC6359",
"K  c #CF4041",
"L  c #D24545",
"P  c #DC4245",
"I  c #D34847",
"U  c #D54A49",
"Y  c #DB4C4B",
"T  c #DC514F",
"R  c #DD5451",
"E  c #DF5854",
"W  c #E24347",
"Q  c #E24749",
"!  c #E34B4C",
"~  c #E2504F",
"^  c #E25552",
"/  c #E15653",
"(  c #E15451",
")  c #E25552",
"_  c #E35855",
"`  c #E55855",
"'  c #E45955",
"]  c #E55955",
"[  c #E65955",
"{  c #E55956",
"}  c #E65956",
"|  c #E35A56",
" . c #E65D59",
".. c #E75E59",
"X. c #E55E59",
"o. c #E6615C",
"O. c #E8665F",
"+. c #C97667",
"@. c #CB7466",
"#. c #CB7768",
"$. c #D07969",
"%. c #E86D63",
"&. c #E87065",
"*. c #E97769",
"=. c #EA7C6D",
"-. c #EB7D6E",
";. c #EA7D6E",
":. c #E48271",
">. c #EB8171",
",. c #ED8070",
"<. c #ED8372",
"1. c #EC8773",
"2. c #EB8774",
"3. c #EC8674",
"4. c #EC8774",
"5. c #E98673",
"6. c #EC8874",
"7. c #EE8875",
"8. c #EF8976",
"9. c #EE8976",
"0. c #ED8976",
"q. c #ED8C79",
"w. c #EC8C7A",
"e. c #F08B77",
"r. c #8E8D8C",
"t. c #EFA497",
"y. c #DFB0A7",
"u. c #E5ABA1",
"i. c #F6DCD8",
"p. c #EDE9E8",
/* pixels */
"                                                                                                                                ",
"                                                                                                                                ",
"                                                                                                                                ",
"                                                                                                                                ",
"                                                                                                                                ",
"                                                                                                                                ",
"                                                                                                                                ",
"                                                                                                                                ",
"                                                                                                                                ",
"                                                                                                                                ",
"                                                                                                                                ",
"                                                                                                                                ",
"                                                                                                                                ",
"                                                                                                                                ",
"                                                                                                                                ",
"                                                                                                                                ",
"                                                                                                                                ",
"                                                            3 3 3                                                               ",
"                                                            3 3 3 3                                                             ",
"                                                            3 3 3 3 2 4                                                         ",
"      3 3 3                                                 < & & & & < <                                                       ",
"      3 3 3 3 3 3                                       2 4 1 2 2 3 3 3 3 3 3 3 3 3 3 3 3 3 3 2                                 ",
"        3 3 3 2 3 3 3                       6 8 3 3 3 3 3 3 3 3 3 3 3 3 2 3 3 3 3 3 2 3 3 3 3 3 3 3 3 2                         ",
"        3 3 3 1 1 4 3 3 2         8 8 8 6 3 3 8 6 3 2 2 3 6 6 1 3 6 6 3 2 3 3 3 3 2 2 3 3 3 3 8 V W Q S w 3 3 2                 ",
"          3 3 3 3 2 , 2 3 6 8 8 8 8 8 8 8 7 5 8 t 8 1 8 8 8 7 4 8 t t 1 4 6 3 6 8 4 4 3 3 3 w  .3.w.w.6.-.Q 8 3 3 3 2           ",
"            2 3 3 3 3 3 3 8 y y y 0 0 y w 0 w w i w 0 y y y 0 0 y y y 7 8 8 8 8 t 7 8 8 3 8 [ 3.t.i.y.+.3.3.W 3 3 3 3 3 2       ",
"              3 3 , 2 2 8 l l j l g m m k g m P N k e j m m g a j j l e 9 i y y w 9 w t 6 B -.3.u.p.r.@ G 6.*.w 3 3 3 1 2 3     ",
"              3 3 2 1 1 q Y Y Y Y L L / Y K U [ / Y n Y T T K Z Y Y Y n b m m m A h w t 8 C 3.6.F $ + . @ $.3.j 3 3 3 1 3 3     ",
"              3 3 3 3 2 8 ! [ [ / L R [ / L [ [ [ L Y [  .[ L R [ [ / L / c ; n Y n k y 6 C 3.6.D . o o @ #.3.j 3 3 2 2 3 3     ",
"            3 3 3 2 2 2 3 S  . ./ L  . .[ L [  .[ L / o.o.o.L R  .[ [ L / L * * : c k y t B -.6.+.# o O % 3.-.w 3 3 1 3 3 3     ",
"          2 3 3 4 1 3 3 3 j  . . .L R o. .L Y o.o.I R o.o.o.U T o.o.o.L Y v * * * - p y 8 8 [ 6.6.+.H J :.6. .8 3 2 2 3 3 3     ",
"          3 3 3 3 3 3 3     [ o. .L R o. .L [ o.o.Y U o.o. .L  .o.o. .L [ n * * * * * 9 8 3 w %.6.6.e.e.6.&.w 3 3 , 3 3 8       ",
"        3 3 3 3 3 2            .[ L  .o. .L  .o.o.I R o.o.E L o.o.o.[ L o.[ : * * * * * 5 3 3 w ! %.&.O.! w 3 3 4 2 3 3         ",
"      2 3 3 3                    .U R o.o.U R o.o.L [ o.o. .L R o.o. .I R E - * * * * * = 4 3 3 3 8 8 8 3 3 3 3 1 3 6 3         ",
"                                  /  .o.o.U  .o. .U U  .o.o.L R o.o.o.U T o.Z * * * * * * 1 6 3 3 3 3 3 3 3 6 6 6 8 8           ",
"                                  x  .o. .L [ o. .T U o.o.o.I  .o.o. .L [ o. .n - * * * = 7 6 3 3 3 3 3 3 6 3 3 6 8             ",
"                                2 3 l [ o.T R  . .U R o.o.o.U E o.o. .U R o.o.o.T c > f e t 8 6 3 6 6 3 3 6 3 3 8               ",
"                                3 3 2 d / o. . . .Y U o.o.o.U T o.o.o.T I o.o. . .T L Y x i t 8 6 6 3 3 3 6 8 8                 ",
"                                3 3 2 2 q A [ o.o.[ L R o. .L [ o.o.o.U T o.o.o. ./ L / Y l y t t 8 6 3 3 8                     ",
"                                3 3 2 2 2 1 s W [  . . . . .U T o.o.o.U R o.o.o.o. .L T / L j y y 8 8 8 8                       ",
"                                    3 3 3 3 3 3 w Q  . .o. .[ R  . .[ R L  .o. .o.o.R T [ / Y z w y                             ",
"                                                        [  . . .[ o.o.o.[  .o.o.o. . . .[ / / L                                 ",
"                                                                ! A P Y ! T ! ~  .[ /                                           ",
"                                                                2 3 1 4 7 5 8                                                   ",
"                                                                3 3 3 3 1 2 3                                                   ",
"                                                                3 3 3 2 2 8                                                     ",
"                                                                  3 3 3 3                                                       ",
"                                                                                                                                ",
"                                                                                                                                ",
"                                                                                                                                ",
"                                                                                                                                ",
"                                                                                                                                ",
"                                                                                                                                ",
"                                                                                                                                ",
"                                                                                                                                ",
"                                                                                                                                ",
"                                                                                                                                ",
"                                                                                                                                ",
"                                                                                                                                ",
"                                                                                                                                ",
"                                                                                                                                ",
"                                                                                                                                ",
"                                                                                                                                ",
"                                                                                                                                "
};
