/* XPM */
static char *exit[] = {
/* columns rows colors chars-per-pixel */
"64 64 144 2 ",
"   c #000000",
".  c #001D2D",
"X  c #011F30",
"o  c #01202F",
"O  c #0B242D",
"+  c #11272A",
"@  c #15292A",
"#  c #1B2D29",
"$  c #1F302D",
"%  c #022130",
"&  c #0A2531",
"*  c #0E2933",
"=  c #132B34",
"-  c #173037",
";  c #1A3137",
":  c #1D3439",
">  c #212F28",
",  c #243127",
"<  c #2A3527",
"1  c #253329",
"2  c #2C3628",
"3  c #2E3828",
"4  c #323925",
"5  c #3A3E24",
"6  c #21373A",
"7  c #253A3C",
"8  c #293D3D",
"9  c #3E4123",
"0  c #2D403F",
"q  c #564E1E",
"w  c #5E531E",
"e  c #63551D",
"r  c #66581D",
"t  c #6B5B1E",
"y  c #725E1B",
"u  c #76611B",
"i  c #7C641A",
"p  c #414324",
"a  c #484620",
"s  c #4C4924",
"d  c #554E21",
"f  c #605722",
"g  c #645821",
"h  c #2D4140",
"j  c #354641",
"k  c #364843",
"l  c #3C4C45",
"z  c #404F47",
"x  c #455349",
"c  c #49564A",
"v  c #4C594C",
"b  c #515D4E",
"n  c #566150",
"m  c #5C6552",
"M  c #5F6854",
"N  c #636B55",
"B  c #686E57",
"V  c #676F58",
"C  c #6B725A",
"Z  c #72765B",
"A  c #74785C",
"S  c #797C5E",
"D  c #7D7F60",
"F  c #866A16",
"G  c #8C6E15",
"H  c #896D19",
"J  c #906F15",
"K  c #947214",
"L  c #9A7614",
"P  c #9F7A16",
"I  c #92721A",
"U  c #AA7F0F",
"Y  c #A37C13",
"T  c #A37E18",
"R  c #7E8061",
"E  c #AD810F",
"W  c #B5850E",
"Q  c #BD8A0D",
"!  c #AD8214",
"~  c #B38612",
"^  c #B58815",
"/  c #BD8B10",
"(  c #C48E0C",
")  c #CC930A",
"_  c #D49707",
"`  c #D59807",
"'  c #DB9B07",
"]  c #D0970D",
"[  c #DB9C08",
"{  c #E6A205",
"}  c #ECA503",
"|  c #F4AA01",
" . c #FAAE00",
".. c #FEB000",
"X. c #838463",
"o. c #8B8B66",
"O. c #8E8D68",
"+. c #908F69",
"@. c #93916A",
"#. c #9A966C",
"$. c #9D996E",
"%. c #A19C6F",
"&. c #A29D70",
"*. c #A5A072",
"=. c #ADA675",
"-. c #B2AA77",
";. c #B6AD79",
":. c #B9AF7A",
">. c #BCB27B",
",. c #C2B77E",
"<. c #C5B97F",
"1. c #C7BB80",
"2. c #C5BA80",
"3. c #C6BA80",
"4. c #CABD81",
"5. c #CCBF82",
"6. c #CABD82",
"7. c #CFC083",
"8. c #CEC083",
"9. c #D0C284",
"0. c #D5C686",
"q. c #D4C586",
"w. c #D7C887",
"e. c #DAC987",
"r. c #DACA88",
"t. c #DECE8A",
"y. c #DACA88",
"u. c #E1CF8B",
"i. c #E0CF8B",
"p. c #E1D08B",
"a. c #E2D08B",
"s. c #E2D08C",
"d. c #E5D38D",
"f. c #E7D48E",
"g. c #E4D28D",
"h. c #E9D68F",
"j. c #E9D68E",
"k. c #EBD78F",
"l. c #EAD78F",
"z. c #E9D58E",
"x. c #ECD890",
"c. c #EDDA91",
"v. c #EDD991",
"b. c #F0DB91",
/* pixels */
"                                                                                                                                ",
"                                                                                                                                ",
"                                                                                                                                ",
"                                                                                                                                ",
"                                                                                                                                ",
"                                                    o & & o o . . . . & .                                                       ",
"                                          & & o . . . o . . . . . . . . . . . . . . .                                           ",
"                                      o . o o . . . . o . . . . . . . . . . . . . . . . .                                       ",
"                                  . . . . . . o . . & & & . . . . . . . . . . . . . . . . . . o                                 ",
"                              . . o . . . . . . o & & . . . . . . . . . o o . . . . . . o . . . . .                             ",
"                          o . . . . . . . . . . o . . . . . . . . . . o . . . . . . . . . . . . . . .                           ",
"                        . . . . . . . . . . . . . . . . . . . . o . o . . . . . . . . . . . . o o . . . .                       ",
"                      . . . o . . . . . . . . . . . . . . . ; k & . . . . . . . . . . . o . . . . . . . . .                     ",
"                  . . . . . . o . . . . . . . . . . . . . . A 5.- . . . . . . . l 7 . . . . . . . . . . . . .                   ",
"                . . . . . . . . . . . . . . . . . o = . . . A 0.; . = D 7 . . ; 8.R . . . . . . . . . . . . . .                 ",
"                . . . . . o . . . . . ; D ; . . . x >.8 . . 6 z o . 0 d.N . . 8 u.C . . . . . . . . . . . . . . o               ",
"              . . . . . o . . . o . . 8 r.O.o . . 0 d.C . . . . . . 8 d.m . . * n ; . . . . . . . o . . . . . . . .             ",
"            . . . . . . & . . . . . . . S b.b . . & -.2.= . . . . . 0 d.B . . . . . . . . . . . . & o o . . . . . . X           ",
"            . o o . . & O.X.= . . . . . = O.b . . . m h.x . . . . . 0 d.B . . . . . . . & N j . . o . & . . o . . . .           ",
"          o . . . . . o R h.N . . . . . . . . . . . ; r.#.. . . o . 8 e.n . . . . . . & O.c.b . . o o & . o o . . . . .         ",
"        . . . . . . . . o l ; . . v $.0 . . . . . . o +.:.= . . . . & l = . . . . . & X.k.S o . . . . . . o & . . . . o         ",
"        . . . . . . . . . . . . . l r.0.l . . . . . . = 8 . . . . . . . . . . . . & A h.S . . . . . . . . . . . . . o . &       ",
"      . . . . . . . . . . . . . . . l 5.u.m o . . . . . . . . . > 1 o . o o . . . x d.R & . . . . o o . o o . o o . . . .       ",
"      . . . . . . . . . . = & . . . . 6 =.x.S o . . . . r F t p Q [ L 1 s U 5 . . = c & . . . o o . . . . . . o o . . . .       ",
"      . . . . . . . . . O &.>.b & . . . = @.5.; . O s u ] .. .} |  . .) ~  .) < . . . . . . . . . & & . . . . . . . . . . .     ",
"      . . . . . . . . . . n ,.h.:.x & . . & 7 . . $ t y q t y u G E [  . . . .W 1 p O . o . . . k #.O.& o & o . . . . . . .     ",
"    & . . . . . . . . . . . * n >.d.b . . . . . . . . . . . . . . . 1 r W |  .| / { g . . . 7 X.d.h.C o & o . . o . o o o .     ",
"    . . . . . . . . . o o . . . = v 6 . . . . , a p o . . . . . . . . . O f [  . . .! O . 8 5.h.@.k & . . . . . . . . . . o     ",
"    . . . . . . . * X.-.%.7 . . . . . . . < F ` } F o . . . . . . . . . . . 5 )  . .) + . l %.x o . . . . & o . . . . . . . O   ",
"    o o . . . . . * O.>.:.l . . . . . . 9 )  . .L O . . . . . . . . . . . . . s }  .` # . . . . . . . v @.=.m . o . . o o . &   ",
"    . . . . . . . . o & O . . . . . . + Q  . .` < . . . . . . . . . . . . . . o P  .) # o . . . . . . o.5.:.x . . . . . . . .   ",
"    . . . . . . . . . . . . . . . . . s | |  .E o . . . . . . . . . . . o & o . r  .' ! u . . . . . . & * & . . . . . o . . .   ",
"    . . . . . . . . . . . O & = ; o . < i W  .W O . . . . . o o . . . . . . . . y  . ...H . . . . . . . . . . . . . . . . o .   ",
"    . . o . . . . . . ; X.:.<.5.0.n . . . K  .[ 3 . . . . . . . . . . . . . . # (  . ._ 4 . . . j S S Z N ; . . . . . . . . .   ",
"    & o o . . . o . . 0 >.-.#.X.C ; . . . K  . .L O . . . . o . . o . . . . O G  . .Q 5 . . . . m e.u.u.r.c . . . . . . . . .   ",
"    & o o . . . . . . . & o . . . . . . . F  . .| K + . & & o . . . . . . . a [ ) F # . . . . . o ; 8 0 8 o . . . . . . o o &   ",
"      . . . . o . . . . . . . . . o . . . d | | | | E 5 O . . . . . . . . . + 4 + . . . l l 7 - & . . . . . . . . . . . . . .   ",
"      . . . . o . . . . . . o . . o . . . # ( K )  . .{ Y d 1 O o . . . . . . . . . . & -.h.u.0.,.#.S 8 . . o . . . . o . .     ",
"      . . . . . . . . . . o . o o . . & & . 2 + w }  .|  .| [ ^ T L K G G H p . . . . . 8 b N D &.<.0.x . . . . . . . . . .     ",
"      . o o o & o . o . . . . . . . . . . . . . . i | ] I }  . .' {  .| H s + . . . . . . . . . . = ; o . . . . . . . . . .     ",
"        . . o o . . . . . . . ; = . . . . o & . . o u i O p K Q s 3 r r + . . . . x X.= . . . . . . . . . . . . . . . . . .     ",
"        . . . . . . . . . = N 8.@.. . . . n -.8 . . . . . . . O o . . . . . . . . c c.#.& . . . . . . . . . o o . . . . .       ",
"        . . . . o . . . & &.h.&.l . . . b d.5.7 . . o 6 & . . . . & & . . . . . . . C #.= . . . . . . . . . . o . . . . .       ",
"          . . . o o . . o v x & . o o V d.=.7 . . . ; ,.n . . . . C @.& . . . . . . . O . . . & o . . . . . . . . . . .         ",
"          . o . . o . . o . . . . . M h.$.= . . . . 8 d.N . . . . X.r.; . . . ; v o . . . . . . . . . . . . . o . . .           ",
"            . . o . . . o . . o o . N X.* . o o . . 6 ,.b . . . . N d.h . . . v d.v . & . . o . . o . . . . . . . . &           ",
"              . o . . . . o & o . . o . . . . . . . . ; & . o . . l d.l . . . ; 0.*.& . o o o . . & o . . . . . . &             ",
"              & & . . o . . . . . . . . . o . . . . . . . . . . . 8 u.C . . . . b X.& . . . . . . . . . . . . . .               ",
"                & . . . . . . . . . . . . . . . . . . . . . . . . = 5.R . o . . . & o & o o o o . . . . . . . .                 ",
"                  . . . . . . . . . . . . . . . . . . . . . . . . o l 6 . . . . & o . . o . & . . o o . o o o                   ",
"                    . . . . . . . . . . . . . . . . . . . . . . . . . . o . . . . . o o o . . . . . o . . .                     ",
"                      & . . . . . . . . . . . . . . . . . . . . . . . . o . . . . o o o . . . o . . . . &                       ",
"                          . . . . . . . . . . . . . . . . . . . . . . . o . . . . . . . . . . . . . . &                         ",
"                            o . . . . . . . . . . . . . . . . . . . o o o o . . . . . . . . . . . .                             ",
"                                . . . . . . . . . . . . . . & o . . . o . . . . . . . . . . . .                                 ",
"                                    . . . . . . o . . . . . o . . . . . . . . . . . . . . .                                     ",
"                                          & . . . . . . . . . . . . . . . . . . . . .                                           ",
"                                                  . . o . . . . . . . & X .                                                     ",
"                                                                                                                                ",
"                                                                                                                                ",
"                                                                                                                                ",
"                                                                                                                                ",
"                                                                                                                                ",
"                                                                                                                                "
};
