/* XPM */
static char *sea[] = {
/* columns rows colors chars-per-pixel */
"64 64 163 2 ",
"   c #47A3DC",
".  c #4BA6DE",
"X  c #4EA8DF",
"o  c #51A9DF",
"O  c #4FA9E0",
"+  c #53ACE1",
"@  c #58AFE3",
"#  c #57B0E4",
"$  c #5EB3E4",
"%  c #5FB2E5",
"&  c #5EB3E5",
"*  c #5FB3E5",
"=  c #5EB2E4",
"-  c #5CB3E6",
";  c #5DB3E6",
":  c #5EB3E6",
">  c #5CB2E5",
",  c #5EB4E5",
"<  c #5FB4E5",
"1  c #5DB4E6",
"2  c #5DB4E7",
"3  c #5EB4E6",
"4  c #5FB4E6",
"5  c #5EB4E7",
"6  c #5EB5E7",
"7  c #5FB5E7",
"8  c #5BB2E5",
"9  c #5FB5E8",
"0  c #5FB5E8",
"q  c #60B3E5",
"w  c #60B4E5",
"e  c #61B4E5",
"r  c #60B4E6",
"t  c #60B5E6",
"y  c #61B5E6",
"u  c #60B5E7",
"i  c #62B5E6",
"p  c #63B5E6",
"a  c #60B6E7",
"s  c #61B6E7",
"d  c #62B6E6",
"f  c #63B6E6",
"g  c #62B6E7",
"h  c #63B6E7",
"j  c #62B7E7",
"k  c #63B7E7",
"l  c #64B7E7",
"z  c #65B7E7",
"x  c #61B6E7",
"c  c #64B8E7",
"v  c #65B8E7",
"b  c #66B8E7",
"n  c #66B8E7",
"m  c #60B6E8",
"M  c #61B6E8",
"N  c #61B7E8",
"B  c #61B7E9",
"V  c #62B6E8",
"C  c #62B7E8",
"Z  c #63B7E8",
"A  c #62B7E9",
"S  c #63B7E9",
"D  c #64B7E8",
"F  c #65B7E8",
"G  c #62B7E8",
"H  c #63B8E8",
"J  c #63B8E9",
"K  c #64B8E8",
"L  c #65B8E8",
"P  c #64B9E8",
"I  c #65B9E8",
"U  c #64B8E9",
"Y  c #65B8E9",
"T  c #64B9E9",
"R  c #65B9E9",
"E  c #66B8E8",
"W  c #67B8E8",
"Q  c #66B9E8",
"!  c #67B9E8",
"~  c #66B8E9",
"^  c #66B9E9",
"/  c #67B9E9",
"(  c #67BAE9",
")  c #65B9EA",
"_  c #66B9EA",
"`  c #66BAEA",
"'  c #67BAEA",
"]  c #65B9E9",
"[  c #68B9E9",
"{  c #68BAE9",
"}  c #69BAE9",
"|  c #6ABBE9",
" . c #68BAEA",
".. c #68BBEA",
"X. c #69BBEA",
"o. c #68BBEB",
"O. c #69BBEB",
"+. c #6ABBEA",
"@. c #69BCEB",
"#. c #6ABCEA",
"$. c #6BBCEA",
"%. c #6ABCEB",
"&. c #6BBCEB",
"*. c #6BBDEB",
"=. c #6CBCEA",
"-. c #6CBDEA",
";. c #6CBDEB",
":. c #6DBDEB",
">. c #6DBEEB",
",. c #6EBEEB",
"<. c #6FBEEB",
"1. c #6FBFEB",
"2. c #6CBDEC",
"3. c #6DBEEC",
"4. c #6EBEEC",
"5. c #6FBEEC",
"6. c #6EBFEC",
"7. c #6FBFEC",
"8. c #6EBFED",
"9. c #6CBDEB",
"0. c #70BFEB",
"q. c #70BFEC",
"w. c #70BFEC",
"e. c #6FC0ED",
"r. c #71C0EB",
"t. c #72C0EB",
"y. c #70C0EC",
"u. c #71C0EC",
"i. c #70C0ED",
"p. c #71C0ED",
"a. c #71C1ED",
"s. c #72C0EC",
"d. c #72C1EC",
"f. c #73C1EC",
"g. c #72C0ED",
"h. c #72C1ED",
"j. c #73C1ED",
"k. c #73C2ED",
"l. c #72C1EE",
"z. c #73C1EE",
"x. c #73C2EE",
"c. c #74C1ED",
"v. c #74C2ED",
"b. c #75C2ED",
"n. c #76C3ED",
"m. c #74C2EE",
"M. c #75C2EE",
"N. c #75C3EE",
"B. c #76C3EE",
"V. c #77C3EE",
"C. c #76C3EF",
"Z. c #76C4EE",
"A. c #77C4EE",
"S. c #76C4EF",
"D. c #77C4EF",
"F. c #74C2ED",
"G. c #78C4EF",
"H. c #78C5EF",
"J. c #79C5EF",
"K. c #7AC6EF",
"L. c #79C5EF",
"P. c #7AC6F0",
"I. c #7BC6F0",
/* pixels */
"J # k # .   X k k N # N # >.@ . . @ >.N N # k k J X . X # >.N # k # J # .   . k k J # # # >.@ . . @ >.k N # # k J X . . k >.J # ",
"m.# X @ # @ @ @ . k m.m.@ . @ # @ @ . . m.m.J . X # # # @ . # m.m.# . @ # @ # @ . >.m.q.@ O # # @ # X . m.m.k . @ # # # @ . # H.",
"# @ # v m.m.m.k # @ J # @ # >.m.m.>.# @ @ J @ @ # >.m.m.J # X # # @ # k m.m.m.N # @ J # @ N >.m.>.>.k @ @ J @ # k q.m.m.J k @ k ",
"# @ >.H.>.J >.H.>.@ # @ # m.m.>.>.m.m.k @ # @ J H.>.k >.m.>.@ @ @ @ >.m.>.J >.m.J @ # @ # m.m.J J >.m.# @ # @ J P.>.k >.m.q.# @ ",
". @ k # J k # # k X   . # # # N N # k # . . . k k J k N # k @ . . @ # # k k # # k O . X # # # J N # k @ . . . # # N k k # k @ X ",
"# # @ . >.m.v X @ # # # # . @ m.m.# O @ # # # @ X J H.m.@ X # N # # @ . >.m.N @ @ # # # @ . @ H.m.@ X @ N # # @ . >.m.q.@ X # N ",
"m.q.J # @ N X # >.m.m.m.>.J @ # # @ J >.H.m.m.>.N @ N @ @ J m.m.m.q.J # @ N @ # >.m.m.m.>.J @ # # @ N >.m.m.m.J # O # @ @ J >.m.",
"# J m.k @ # @ >.P.J # N >.m.# @ @ # m.m.J # J m.>.@ @ @ k m.>.# J >.m.k @ # @ >.m.>.# J m.>.@ @ o @ m.m.J k J m.J @ @ @ # m.>.k ",
">.# @ @ X . O @ @ N v N @ # @ @ . @ @ # >.>.k # # @ . O @ @ # k >.# # @ X . @ # @ J >.J # # O O . @ # # J J # @ # O . X @ @ # J ",
"m.@ @ @ J # # @ @ k m.>.o @ # N # # @ X >.m.k @ @ N N N # @ @ q.m.# @ # J k J @ . k m.>.@ @ # k k k @ o >.m.k @ @ k k N # @ @ m.",
"# @ J m.H.m.m.>.N @ # @ @ J m.m.m.m.>.# @ N @ N q.H.m.m.m.>.@ # # @ N m.m.m.H.>.9 O k @ @ >.m.m.m.m.>.@ @ k X # >.m.m.m.m.J @ # ",
"@ @ q.m.N # J q.>.@ o X # m.>.# # J m.k @ @ @ >.m.J # N >.m.# @ @ # m.>.k # J m.>.@ @ @ # m.>.# # J m.k @ @ @ >.m.N # J >.m.# @ ",
"@ @ @ @ >.>.k @ @ X X O @ X # >.>.# @ @ @ X @ @ X k >.>.@ @ @ @ @ @ @ @ >.q.J @ @ @ X X @ @ # >.>.@ @ @ @ . O @ . J >.>.@ @ @ @ ",
"k # @ @ J >.# @ # J J >.# @ @ >.>.@ @ # >.N J @ @ @ >.J @ @ k >.J J # @ J >.k @ @ J J J # # @ >.>.@ @ # J k J # @ # >.J @ # N >.",
"m.q.>.# @ N @ # m.m.m.m.m.>.@ @ # @ J m.m.m.m.m.k . k @ @ >.m.m.m.m.m.# @ # X # m.m.>.m.m.>.@ @ @ @ J m.m.>.m.m.J X k @ # >.m.q.",
"# # >.k O o X >.>.N # N N m.@ . . @ q.>.# # # J >.@ . . # >.J # # k m.k X . X k >.N @ 9 J q.@ . . @ q.J # # # >.>.@ o . # >.J # ",
"m.# @ @ @ @ @ @ . J m.>.@ X @ @ O @ . . >.m.N O @ @ @ @ @ . # m.m.# O @ @ @ @ . . J q.>.@ @ @ # @ @ X @ >.m.k . O @ @ @ @ . # m.",
"J @ # # >.>.>.# @ @ >.# @ # k >.>.N # O # >.@ @ # J >.>.k # @ J J @ # # >.>.J @ @ @ J k @ # J m.>.J # @ # >.@ @ # >.>.>.# # @ N ",
"# @ >.m.m.J >.H.>.@ k @ # m.m.>.>.m.m.# o k . # m.>.J >.m.>.@ @ # @ >.P.>.>.>.m.k @ # @ # m.m.>.>.m.m.# @ k @ J H.m.>.m.m.>.@ @ ",
"X @ >.J N # # k >.X . . # >.N # # # J # . . @ k J N # # # >.@ . . @ >.J # # # k J O . . # >.N # N # >.# . . @ >.J J # # # >.@ . ",
"# # @ X m.H.>.. @ @ @ @ @ . @ m.m.# . @ # @ # @ . J m.m.@ . @ @ @ # @ X m.m.>.. @ # @ @ @ . # H.m.# X @ # @ # @ . >.m.>.@ X @ # ",
"m.>.J # @ J @ # k >.m.>.J # @ # k @ # k m.m.m.k # @ J # @ # >.m.m.>.# @ @ J @ # k >.>.>.k # @ k # @ # v m.m.m.J # @ J @ @ # >.m.",
">.m.H.k @ # @ J m.>.J >.m.m.# @ # @ >.H.>.J q.H.J @ # @ # m.m.J J m.m.# @ k @ >.m.>.N >.m.>.# @ @ @ >.m.>.J >.m.J @ # @ # m.m.N ",
">.# J # X . O k # N k N # J @ . . @ k k J k # # k @ .   # k # k N # k @ . . o k # # # k # k @ . . @ J k N k # # k . . . # k N # ",
"m.# . @ # # # @ . k m.>.@ @ # N # # @ X m.m.>.X @ # # # @ . @ m.m.# X @ # # # @ . N m.q.@ X # # # # @ X m.H.k . @ # # # # X @ m.",
"# X # J m.m.m.>.# X k @ @ J m.m.m.m.>.# @ J @ # >.m.m.m.>.J @ # # @ J >.m.m.m.J # O # @ @ k q.m.m.>.J @ @ N X # J m.m.m.>.N @ # ",
"@ @ >.m.N # J m.>.@ @ @ # m.m.k J >.H.J @ # @ >.m.>.# >.m.m.# @ # # m.m.J N J m.J O @ @ # m.>.# N >.H.# @ # @ >.m.>.# J >.>.@ o ",
". @ @ @ J k # @ @ X . . @ @ # J J # # @ . . O # @ J >.J # # @ X . @ @ # J J # @ @ O O X @ @ # k J # # @ O . O # @ N J k @ # @ X ",
"# # @ . >.m.k X @ # k N # O @ m.m.# @ @ N # # @ . k m.>.@ @ # J k # @ X >.m.k @ @ N k N @ X @ >.m.@ @ # J # N @ . # m.>.@ @ # J ",
"m.m.J # o N O # >.m.m.m.q.J @ @ # @ N >.m.m.m.>.# @ k @ @ >.m.m.m.m.>.# @ N @ k >.m.m.m.m.J @ # # @ J m.m.m.H.>.k X k @ # >.m.m.",
"# N m.k @ @ @ J m.J @ N J m.# o o @ q.>.N # N >.J @ @ @ k H.>.# # J m.k X @ @ >.m.N # J >.q.@ o X @ m.m.N # J m.>.@ @ @ k m.>.# ",
">.@ @ @ @ X X @ @ J >.J @ @ @ . . @ @ @ >.>.# @ @ @ @ @ @ @ # >.>.# @ @ @ . @ @ @ J >.>.@ @ X O X @ @ @ >.>.# @ @ @ @ @ @ @ # >.",
">.@ @ # >.k N @ @ # >.N X @ # J k N # @ J >.# @ @ N N J # @ o >.>.@ @ # >.k N @ @ # >.J @ @ # J J N @ X J e.# @ @ J J J # @ @ >.",
"@ @ J m.m.m.m.m.J @ # @ @ >.m.>.m.H.m.k @ k O # m.m.>.m.m.>.@ @ @ @ J m.m.q.m.m.N X k @ # >.m.>.m.m.>.# @ k @ N m.m.m.m.m.J @ @ ",
"o @ >.>.N # N >.>.@ @ @ # m.J # # k m.k O . @ >.>.N # 9 J q.@ . . @ q.>.N # N >.>.@ o X k m.J # N k m.k o o @ >.m.J # N k >.@ . ",
"@ @ X o >.m.J O @ @ @ @ @ X @ m.m.# @ @ @ @ @ @ . k m.>.@ . @ @ @ @ X @ >.m.J @ @ @ @ @ @ . # m.m.@ X @ # @ @ @ O >.m.>.@ @ @ # ",
">.J # @ # >.@ @ # >.>.>.k # @ J J @ # # >.>.>.# @ @ J k @ # k m.>.J # @ # >.# # # >.>.>.# # @ J N @ # J m.>.>.# @ # >.k @ # J m.",
"e.m.m.# @ # X k m.m.>.m.m.>.@ @ @ O >.H.m.>.m.m.J @ # @ # >.m.>.q.m.m.# @ k @ k H.m.>.m.H.>.@ # @ @ >.H.m.>.m.H.J @ k @ # m.m.J ",
"N # >.# . . O >.J 9 # N # >.@ . . @ >.J k # # J J @ . . # >.J # # # >.# . . @ J J J # N # >.@ . . @ >.J # # # >.>.X . . # >.9 @ ",
"m.# O @ # @ # @   k m.m.@ @ # # @ @ @ @ m.P.>.X @ # @ @ @ . # m.m.# . @ # # # @ . >.m.q.@ @ @ # @ @ . X >.m.J O X # # @ @   @ m.",
"N @ # k m.q.>.k # @ N # @ N >.m.>.>.J # # J @ # k >.>.m.J N @ N # @ # v m.q.>.J # @ J # @ N >.m.m.J N @ @ J @ # k >.m.m.k # @ # ",
"@ @ >.m.>.k >.m.J @ # @ # m.m.J >.m.H.N @ k @ J H.>.J >.m.m.# # @ @ q.m.>.J >.m.J @ # @ # m.m.>.>.m.H.# @ # O J H.>.N >.m.>.# @ ",
". @ k # # # # # k X . . # k N N N # k # @ O O k # # k J # >.@ . . @ v k N k # # # X . . # k N N N # J @ . . X # # N # k # J @ . ",
"# # X . >.m.J @ @ # # # # . @ m.m.# O @ N # # @ . J P.m.@ @ # # # # @ o q.H.k . @ # # # @ . @ H.H.@ O @ k # # @ . J m.>.X @ # N ",
"m.q.J # @ J @ # >.m.m.m.>.N @ @ # @ N >.m.m.m.>.# @ N @ @ N >.m.m.>.J # @ N @ # J m.m.m.>.9 O # k @ J >.H.m.m.J # @ J @ # J >.H.",
"J >.m.k @ # @ >.P.>.# J m.m.@ @ @ @ >.m.J # >.m.>.@ @ @ # m.>.# N >.m.k @ # @ J m.>.# J >.m.# @ # # m.m.J N >.m.>.@ # @ k m.>.k ",
">.# # @ X . @ # # J v N # # @ . . @ # @ J J k # # O . . @ @ # J J @ # @ X . @ # @ J J J @ # @ . X @ # # >.>.# # # o . X @ # # J ",
"m.# @ # J N J @ @ k m.>.@ @ # J # # @ . >.m.v X @ J N N # O @ m.q.@ @ @ J k N # O k m.>.@ @ # N k # @ @ m.m.k @ @ J k J # @ # m.",
"# @ J q.H.m.m.>.N @ N @ @ J q.m.H.m.>.# @ N X # >.m.m.m.m.J @ # # @ N >.m.m.m.>.# . N @ # >.m.m.m.H.>.# @ k . # >.H.H.m.>.J @ @ ",
"@ @ m.m.N # J m.>.@ @ @ k m.>.# # J m.k @ @ @ >.m.J # N >.m.@ @ @ # q.>.# # N >.>.@ o @ k m.>.# 9 J H.k @ o O >.m.J # N >.m.@ @ ",
"X @ @ @ >.>.k @ @ o . X @ O # >.>.# @ @ @ O @ @ @ k >.>.@ @ @ @ O @ @ @ >.>.k @ @ @ O O @ o # >.J @ @ @ @ X O @ X J >.N @ @ @ @ ",
"J N @ @ >.>.k @ @ N J J # @ @ >.>.@ @ # >.N J # @ @ >.>.@ @ k >.J N @ . J >.# @ @ J >.J # @ @ >.>.@ @ # >.J N @ O # >.>.@ @ N >.",
"m.H.>.# @ J . # >.m.m.m.m.>.@ @ # @ J m.m.>.m.m.N @ k @ @ >.m.>.m.m.>.# @ k X # m.m.>.m.m.J @ @ @ @ >.m.m.q.m.m.# X k O @ q.m.m.",
"N N q.k X o @ >.>.N # N k m.# . . @ q.>.N # # >.>.@ o X k m.J # # # >.# . o @ >.>.J @ # k m.# . . # m.>.# # N >.>.@ . . # m.J @ ",
"m.# X o @ @ @ @ . J m.>.@ @ @ @ @ @ @ @ >.m.J @ @ @ @ @ @ X # m.m.# @ @ @ @ @ @ . >.>.>.@ @ @ @ @ @ X @ >.m.J @ @ @ O @ @ . # >.",
"J @ @ # >.>.>.# @ @ >.# X # k >.>.J # @ # >.# @ # >.>.>.k # @ J >.@ # # >.>.>.# # # J k @ # J >.>.J # @ k >.# @ # >.>.>.# @ @ k ",
"@ @ J m.m.>.m.m.J @ k @ @ >.m.>.>.m.m.# @ k @ # m.m.>.m.H.>.# @ # @ >.m.q.>.m.H.>.@ k @ @ m.m.>.>.m.m.# @ k @ J m.m.>.m.m.>.@ @ ",
". @ >.N # # # J >.@ o . # >.J # k # >.k X . X k J N # N k >.@ . . @ >.J # # # >.>.X . . # >.J # N # >.k O . @ J >.N # N k >.@ . ",
"@ @ . . >.m.>.@ @ # # @ @ X # H.H.k O @ # @ # @ . J m.>.@ X @ # @ @ X . q.m.J X X # @ @ @ . # H.m.# X @ # @ # o . >.m.q.o O @ # ",
">.>.k # @ J @ # # >.q.>.J k @ k N @ k J m.m.>.k # @ J # @ k >.m.>.J # @ @ J @ # k >.m.m.k # @ k # @ # k m.q.>.k # @ N @ @ # >.m.",
">.>.k # @ J @ # # >.q.>.J k @ k N @ k J m.m.>.k # @ J # @ k >.m.>.J # @ @ J @ # k >.m.m.k # @ k # @ # k m.q.>.k # @ N @ @ # >.m.",
">.>.k # @ J @ # # >.q.>.J k @ k N @ k J m.m.>.k # @ J # @ k >.m.>.J # @ @ J @ # k >.m.m.k # @ k # @ # k m.q.>.k # @ N @ @ # >.m.",
">.>.k # @ J @ # # >.q.>.J k @ k N @ k J m.m.>.k # @ J # @ k >.m.>.J # @ @ J @ # k >.m.m.k # @ k # @ # k m.q.>.k # @ N @ @ # >.m.",
">.m.m.# @ k @ k m.>.N >.H.>.@ # # @ >.P.>.>.m.H.N @ k @ @ m.m.J >.m.m.# @ k @ k H.>.>.>.m.>.@ # # @ >.H.>.>.m.P.N @ k @ # m.m.J "
};
