/* XPM */
static char *kouseki[] = {
/* columns rows colors chars-per-pixel */
"64 64 113 2 ",
"   c #000000",
".  c #5DA413",
"X  c #62A714",
"o  c #65A915",
"O  c #6CAD15",
"+  c #67AA1B",
"@  c #6BAD19",
"#  c #74B216",
"$  c #78B517",
"%  c #73B21A",
"&  c #7BB618",
"*  c #7EB91A",
"=  c #73B124",
"-  c #7FB924",
";  c #72B028",
":  c #7CB630",
">  c #83BC1C",
",  c #86BD22",
"<  c #88BF24",
"1  c #86BD29",
"2  c #8ABF2A",
"3  c #81B933",
"4  c #89BE33",
"5  c #86BC3D",
"6  c #8BC026",
"7  c #8DC12C",
"8  c #90C32F",
"9  c #8FC231",
"0  c #91C434",
"q  c #94C53C",
"w  c #87BC45",
"e  c #97C642",
"r  c #98C743",
"t  c #9AC845",
"y  c #9AC74A",
"u  c #9DCA4B",
"i  c #97C652",
"p  c #99C755",
"a  c #9DC951",
"s  c #9DC95A",
"d  c #A0CB4D",
"f  c #A0CB4E",
"g  c #A0CC4F",
"h  c #A1CC4F",
"j  c #A0CB4F",
"k  c #A0CB50",
"l  c #A1CC50",
"z  c #A1CC51",
"x  c #A2CC50",
"c  c #A1CC52",
"v  c #A2CC52",
"b  c #A3CD52",
"n  c #A3CD53",
"m  c #A3CD54",
"M  c #A4CD54",
"N  c #A4CE54",
"B  c #A5CE56",
"V  c #A5CF56",
"C  c #A4CE57",
"Z  c #A6CE57",
"A  c #A1CC52",
"S  c #A5CE58",
"D  c #A5CF58",
"F  c #A6CF59",
"G  c #A7CF59",
"H  c #A7CF5A",
"J  c #A7CF5B",
"K  c #A5CE5C",
"L  c #A7CF5E",
"P  c #A5CE5A",
"I  c #A7D05B",
"U  c #A7D05C",
"Y  c #A8D05D",
"T  c #A8D05E",
"R  c #A9D15E",
"E  c #A8D05E",
"W  c #A4CD62",
"Q  c #A4CD65",
"!  c #A5CE65",
"~  c #AAD161",
"^  c #ABD161",
"/  c #AAD162",
"(  c #ABD262",
")  c #ABD163",
"_  c #AED369",
"`  c #ABD16D",
"'  c #B1D56C",
"]  c #B2D66E",
"[  c #B3D66E",
"{  c #B0D56C",
"}  c #B2D571",
"|  c #B4D771",
" . c #B4D772",
".. c #B4D676",
"X. c #B4D772",
"o. c #B5D874",
"O. c #B7D876",
"+. c #B7D879",
"@. c #B7D878",
"#. c #B8D979",
"$. c #BCDB7F",
"%. c #B9D97E",
"&. c #BDDC83",
"*. c #BEDC86",
"=. c #BFDD86",
"-. c #BEDC87",
";. c #C0DD87",
":. c #C2DE89",
">. c #C4E08F",
",. c #C5E092",
"<. c #C8E29A",
"1. c #CCE49F",
"2. c #D3E7AB",
/* pixels */
"                                                                                                                                ",
"                                                                                                                                ",
"                                                                                                                                ",
"                                                                                                                                ",
"                                                                                                                                ",
"                                                                                                                                ",
"                                                                                                                                ",
"                                                                                                                                ",
"                                                                                                                                ",
"                                                                                                                                ",
"                                                                                                                                ",
"                                                                                                                                ",
"                                                                                                                                ",
"                                                                                                                                ",
"                                                                                                                                ",
"                                                                                                                                ",
"                                                                                                                                ",
"                                                                                                                                ",
"                                                                                                                                ",
"                                                                                                                                ",
"                                                                                                                                ",
"                                    -.W a T H d q 7 , > > > > > e ..                                                            ",
"                                    u - % : i ..-.$.o.~ u 0 q ~ o.~ 9                                                           ",
"                                    # > * o X % 5 W -.:.>.;.$.C C C d 7                                                         ",
"                                    o * > > o o X o : _ 2.-.9 > 7 d C u 2                                                       ",
"                                    X % > > > % o o + W 1.+.< > > 7 u u q ,                                                     ",
"                                    o o > > > > % @ s ] H _ T , > > 7 q 0 7 ,                                                   ",
"                                    o . % > > > < H ] C y e H H , > > < 8 7 < >                                                 ",
"                                    % . o > > , T ..C C t q 0 H H , > > < < > > >                                               ",
"                                    % . X & > d ] C C u q 0 0 7 C C , > > > > > > >                                             ",
"                                    % . . % T ..C C C u e 0 7 7 7 C C > > > > > > > >                                           ",
"                                    & X . w 1.T C C C a u q 7 7 7 < u d < > > > > > > >                                         ",
"                                    * o @ = 3 , t C a u t 0 7 2 < > > u d , > > > > > > >                                       ",
"                                    * % p = o # , t u t q 0 7 2 , > * > u H < > > > > > 7 u                                     ",
"                                    > C a o o # $ , 0 0 0 0 7 < > > > & > u I , > > > , 0 9                                     ",
"                                    9 ] 4 # o # # $ > 7 0 7 < > > > > > > > d H , > 7 t < >                                     ",
"                                    0 H d 1 # # # $ & > 7 6 > > > > > > > > > C ~ e u u < >                                     ",
"                                      q C u , $ $ & & * > > > > > > > > > > > 7 ,.+.C C 7 >                                     ",
"                                        0 t 0 , & $ & * > > > > > > > > > > > q C ..C C 0 >                                     ",
"                                          7 0 7 > & * > > > , , > > > > > , q 9 > H ~ C q >                                     ",
"                                            < < > > * * * * > 2 , > > > , q 0 > > 9 ..C t >                                     ",
"                                              > > > > * * > > , 7 , > , t 0 > > > > I ~ u <                                     ",
"                                                > > > * & * > > , q 0 e q > > > > > 0 ] C 7                                     ",
"                                                  > > > > > > > > 7 $.C > > > > > > > H ~ 7                                     ",
"                                                    > > > > > > * q T u 0 , > > > > > 0 ] 0                                     ",
"                                                      > > > > > 2 u C C C t 9 , > > > > C t                                     ",
"                                                        > > > < u u C C C C C t 9 , > > 7 e                                     ",
"                                                          > > q q 1 7 0 q t u d C u 0 < 0 H                                     ",
"                                                            > 7 > > > > > , < 7 9 0 q 9 e ~                                     ",
"                                                                                                                                ",
"                                                                                                                                ",
"                                                                                                                                ",
"                                                                                                                                ",
"                                                                                                                                ",
"                                                                                                                                ",
"                                                                                                                                ",
"                                                                                                                                ",
"                                                                                                                                ",
"                                                                                                                                ",
"                                                                                                                                ",
"                                                                                                                                ",
"                                                                                                                                ",
"                                                                                                                                ",
"                                                                                                                                ",
"                                                                                                                                ",
"                                                                                                                                ",
"                                                                                                                                "
};
