/* XPM */
static char *orange[] = {
/* columns rows colors chars-per-pixel */
"16 16 134 2 ",
"   c None",
".  c #EC6701",
"X  c #EC6901",
"o  c #EC6A01",
"O  c #EC6B01",
"+  c #EC6D00",
"@  c #ED6F00",
"#  c #EC6905",
"$  c #ED6D0B",
"%  c #ED7201",
"&  c #EE7600",
"*  c #EE7700",
"=  c #ED7605",
"-  c #EE7800",
";  c #EE7900",
":  c #EE7A01",
">  c #EE7B01",
",  c #EE7802",
"<  c #EF7B02",
"1  c #EF7C01",
"2  c #EF7E01",
"3  c #EF7F01",
"4  c #EF7D02",
"5  c #EF7E02",
"6  c #EF7F02",
"7  c #EF7F04",
"8  c #EF7F05",
"9  c #ED7019",
"0  c #EF7F26",
"q  c #EF8001",
"w  c #EF8002",
"e  c #EF8003",
"r  c #EF8103",
"t  c #EF8004",
"y  c #EF8104",
"u  c #EF8005",
"i  c #EF8204",
"p  c #EF8206",
"a  c #EF8306",
"s  c #EF8307",
"d  c #EF840D",
"f  c #F08306",
"g  c #F08406",
"h  c #F08607",
"j  c #F08508",
"k  c #F0860D",
"l  c #F0870D",
"z  c #F08909",
"x  c #F18B0A",
"c  c #F18B0B",
"v  c #F08C0C",
"b  c #F1900F",
"n  c #EF8514",
"m  c #F08510",
"M  c #F08610",
"N  c #F08611",
"B  c #F08711",
"V  c #F08712",
"C  c #F08A10",
"Z  c #F08A13",
"A  c #F18C11",
"S  c #F18B14",
"D  c #F08A16",
"F  c #F08B16",
"G  c #F08C17",
"H  c #F08B18",
"J  c #F08A19",
"K  c #F18C19",
"L  c #F18D19",
"P  c #F18E19",
"I  c #F08D1A",
"U  c #F08C1B",
"Y  c #F08D1C",
"T  c #F18D1C",
"R  c #F18E1C",
"E  c #F18E1D",
"W  c #F18F1E",
"Q  c #F1951A",
"!  c #F29919",
"~  c #F2991A",
"^  c #EF8324",
"/  c #F08A29",
"(  c #F19020",
")  c #F19221",
"_  c #F19321",
"`  c #F19022",
"'  c #F19122",
"]  c #F19222",
"[  c #F19224",
"{  c #F19225",
"}  c #F19226",
"|  c #F19425",
" . c #F19427",
".. c #F29927",
"X. c #F19028",
"o. c #F19729",
"O. c #F2942A",
"+. c #F2972C",
"@. c #F2972E",
"#. c #F29B28",
"$. c #F29A2B",
"%. c #F29C2A",
"&. c #F29632",
"*. c #F29831",
"=. c #F29A30",
"-. c #F19833",
";. c #F29C31",
":. c #F29B35",
">. c #F39D34",
",. c #F39D35",
"<. c #F39D37",
"1. c #F39E37",
"2. c #F1913B",
"3. c #F1973B",
"4. c #F39B3A",
"5. c #F39F39",
"6. c #F39E3A",
"7. c #F39F3C",
"8. c #F39E3F",
"9. c #F3A03B",
"0. c #F3A33B",
"q. c #F3A23F",
"w. c #F3A240",
"e. c #F4A546",
"r. c #F4A649",
"t. c #F4A74A",
"y. c #F2A453",
"u. c #F3A455",
"i. c #F3A851",
"p. c #F4AC54",
"a. c #F4A658",
"s. c #F5B364",
"d. c #F7BE7B",
"f. c #F8C88E",
/* pixels */
"                                ",
"  y./ 3.8.*.Y ( p.              ",
"  = , $ 0 a.f.9.*.*.            ",
"  o , = o 3.d.( g ( Q           ",
"  o = e &.r.*.9.Y e x e         ",
"  o o 8.p.w.%.! %.Y , , ,       ",
"  o 9 y.9.*.%.b g ( Y , e ,     ",
"  n ^ o m ..! x e e ( Q , , Y   ",
"  *.( = , j x e e e g o.o.( m   ",
"    o.C , , , e e e e m s.w.C   ",
"      x , , , e g e x C Y w.Y   ",
"        , , , e C Y Y g e 8.%.  ",
"          , , , m t.C e e Y 8.  ",
"            , , ( 9.*.( j g (   ",
"              d C m Y ( ( C *.  ",
"                                "
};
