/* XPM */
static char *bandou[] = {
/* columns rows colors chars-per-pixel */
"64 64 105 2 ",
"   c #000000",
".  c #666367",
"X  c #686468",
"o  c #696569",
"O  c #6A666A",
"+  c #6D6A6D",
"@  c #6E6B6E",
"#  c #747074",
"$  c #747174",
"%  c #757174",
"&  c #767275",
"*  c #767376",
"=  c #777376",
"-  c #777477",
";  c #787477",
":  c #787478",
">  c #787578",
",  c #797578",
"<  c #797579",
"1  c #797679",
"2  c #7A7679",
"3  c #7A767A",
"4  c #7A777A",
"5  c #7B777A",
"6  c #7B777B",
"7  c #7B787B",
"8  c #7C787B",
"9  c #7C787C",
"0  c #7C797C",
"q  c #7D797C",
"w  c #7D7A7D",
"e  c #7E7A7D",
"r  c #7E7A7E",
"t  c #7E7B7E",
"y  c #7F7B7E",
"u  c #7F7B7F",
"i  c #7F7C7F",
"p  c #807C7F",
"a  c #807D80",
"s  c #817D80",
"d  c #817E81",
"f  c #827E81",
"g  c #827F82",
"h  c #837F82",
"j  c #837F83",
"k  c #838082",
"l  c #838083",
"z  c #848083",
"x  c #848084",
"c  c #848184",
"v  c #858184",
"b  c #858285",
"n  c #868285",
"m  c #868386",
"M  c #878386",
"N  c #878487",
"B  c #888487",
"V  c #888588",
"C  c #8A8689",
"Z  c #8A878A",
"A  c #8B878A",
"S  c #8B888B",
"D  c #8C898B",
"F  c #8C898C",
"G  c #8D898C",
"H  c #8D8B8D",
"J  c #8E8B8D",
"K  c #8E8B8E",
"L  c #8F8B8E",
"P  c #908D90",
"I  c #918D90",
"U  c #918F91",
"Y  c #928F91",
"T  c #928F92",
"R  c #939093",
"E  c #949194",
"W  c #959294",
"Q  c #959295",
"!  c #959395",
"~  c #979496",
"^  c #979497",
"/  c #989598",
"(  c #999698",
")  c #999799",
"_  c #9A9799",
"`  c #9B989B",
"'  c #9B999B",
"]  c #9D9B9D",
"[  c #9F9D9F",
"{  c #A3A1A2",
"}  c #A3A1A3",
"|  c #A4A2A4",
" . c #A5A3A5",
".. c #A6A4A6",
"X. c #A7A5A7",
"o. c #A8A6A8",
"O. c #A9A7A9",
"+. c #AAA8AA",
"@. c #AAA9AA",
"#. c #ABA9AA",
"$. c #ABA9AB",
"%. c #ABAAAB",
"&. c #ACAAAC",
"*. c #ACABAC",
"=. c #ADABAD",
/* pixels */
"                                                                                                                                ",
"                                                                                                                                ",
"                                                                                                                                ",
"                                                                                                                                ",
"                                                                                                                                ",
"                                                                                                                                ",
"                                                                                                                                ",
"                                                                                                                                ",
"                                                                                                                                ",
"                                                                                                                                ",
"                                                                                                                                ",
"                                                                                                                                ",
"                                                                                                                                ",
"                                                                                                                                ",
"                                                                                                                                ",
"                                                                                                                                ",
"                                                                                                                                ",
"                                                                                                                                ",
"                                                                                                                                ",
"                                                                                                                                ",
"                                                                                                                                ",
"                                                                                                                                ",
"                                                                                                                                ",
"                                                                                                                                ",
"                                                                                                                                ",
"                                                                f l l l                                                         ",
"                        S ) ) ) P V S l                     l l l l l                                                           ",
"                  l f f S ! ! ! ! S P l f f l l l l l l l l l l l l                                                             ",
"                l l l f l l l f l l l l f f l l f l l l l l l l l l                                                             ",
"            l f l l l f l l l f l l l l l l l l f l l l l l l l l l                                                             ",
"            e e l l l f f f l l l l l l l l l l l f l l l l l l l l                                                             ",
"      e e e * > e p > * p f l l l l l l l l l l l l l l l l l l l l l                                                           ",
"    f l B V S P S f > > e f f f l l l l l l l l f f l l l l B l l l l l f                                                       ",
"    } } O.+.+.+.+.} ! f > e e e f l l l l l f l l f l l l l l l l l l l l l l l l                                               ",
"            +.+.+.+.+.} P f > > e f l l l l l l l l l l l l l l l l l l l l l l f f l l l l l                     l l l l l     ",
"                +.+.+.+.+.} ! f e e e > e f f f l f f f f l l l l l l l l l l l f l l l l l f f f f f         l f l l l l       ",
"                    O.+.+.+.+.} ) l e f e e l f f f e p f f l l f l l l l l l l l l l l l p e e e * * > e f l p e f f f         ",
"                        +.+.+.+.+.[ p f l l l l f e > > e e p f f f l f f f f l l f f e e e > > > > > > e e > e f f f           ",
"                              +.+.+.P p l l l V [ S f > > > > e e p p e e e e e e e > > > > > > > e e e f e p l l               ",
"                                V S ! l l l l f ! +.} ) S e > > > > > > > > > > > > > > > > > > > p f f > > f l l               ",
"                                  X X @ e l l f V +.+.+.+.} ) S l e > > > * * ; > > > > > >             p p l l l               ",
"                                    X . @ f l l l [ +.+.+.+.+.+.O.} [ ! ! P S S V f >                     l l f f l             ",
"                                      X X * l l f f           +.+.+.+.+.+.+.                                                    ",
"                                                f l                                                                             ",
"                                                                                                                                ",
"                                                                                                                                ",
"                                                                                                                                ",
"                                                                                                                                ",
"                                                                                                                                ",
"                                                                                                                                ",
"                                                                                                                                ",
"                                                                                                                                ",
"                                                                                                                                ",
"                                                                                                                                ",
"                                                                                                                                ",
"                                                                                                                                ",
"                                                                                                                                ",
"                                                                                                                                ",
"                                                                                                                                ",
"                                                                                                                                ",
"                                                                                                                                ",
"                                                                                                                                ",
"                                                                                                                                ",
"                                                                                                                                ",
"                                                                                                                                ",
"                                                                                                                                ",
"                                                                                                                                ",
"                                                                                                                                "
};
