/* XPM */
static char *wakame[] = {
/* columns rows colors chars-per-pixel */
"62 64 186 2 ",
"   c #000000",
".  c #3D9C28",
"X  c #72B61F",
"o  c #74B61E",
"O  c #75B71E",
"+  c #74B71F",
"@  c #75B71F",
"#  c #76B71F",
"$  c #76B81E",
"%  c #76B81F",
"&  c #77B81F",
"*  c #77B91F",
"=  c #78B81E",
"-  c #79B91E",
";  c #78B81F",
":  c #78B91F",
">  c #7AB91E",
",  c #7BBA1E",
"<  c #7ABA1F",
"1  c #7BBA1F",
"2  c #7BBB1F",
"3  c #7CBB1E",
"4  c #7DBB1E",
"5  c #7CBB1F",
"6  c #409F2A",
"7  c #41A22B",
"8  c #42A32C",
"9  c #43A32C",
"0  c #42A42C",
"q  c #43A42C",
"w  c #42A42D",
"e  c #43A42D",
"r  c #43A52D",
"t  c #43A42E",
"y  c #43A52E",
"u  c #44A52C",
"i  c #44A42D",
"p  c #44A52D",
"a  c #45A52D",
"s  c #44A62D",
"d  c #45A62D",
"f  c #47A62C",
"g  c #46A62D",
"h  c #47A72D",
"j  c #44A42E",
"k  c #44A52E",
"l  c #45A52E",
"z  c #44A62E",
"x  c #45A62E",
"c  c #45A72E",
"v  c #44A62F",
"b  c #45A62F",
"n  c #44A72F",
"m  c #45A72F",
"M  c #46A62E",
"N  c #46A72E",
"B  c #47A72E",
"V  c #46A72F",
"C  c #4BA62A",
"Z  c #4BA72B",
"A  c #49A72C",
"S  c #48A72D",
"D  c #49A72D",
"F  c #48A72E",
"G  c #46A82E",
"H  c #46A82F",
"J  c #4DA92B",
"K  c #4EA92A",
"L  c #4EA92B",
"P  c #4FAA2B",
"I  c #49A82D",
"U  c #4BA82C",
"Y  c #4AA82D",
"T  c #4BA82D",
"R  c #4BA92D",
"E  c #48A82E",
"W  c #49A82E",
"Q  c #4CA92C",
"!  c #4DA92C",
"~  c #4CA92D",
"^  c #4EA92C",
"/  c #4EAA2C",
"(  c #4FAA2C",
")  c #54AA27",
"_  c #59AD27",
"`  c #5AAD27",
"'  c #5AAE27",
"]  c #5BAE27",
"[  c #5CAE26",
"{  c #5CAE27",
"}  c #5DAE27",
"|  c #5DAF27",
" . c #5EAF26",
".. c #5EAF27",
"X. c #52AB29",
"o. c #50AA2B",
"O. c #51AA2B",
"+. c #51AB2B",
"@. c #53AB2A",
"#. c #52AB2B",
"$. c #53AB2B",
"%. c #55AB28",
"&. c #53AC2B",
"*. c #55AC29",
"=. c #56AC29",
"-. c #57AC29",
";. c #56AD29",
":. c #57AD29",
">. c #54AC2A",
",. c #55AC2A",
"<. c #57AD2A",
"1. c #50AA2C",
"2. c #58AD28",
"3. c #59AD28",
"4. c #58AD29",
"5. c #59AE28",
"6. c #59AE29",
"7. c #5AAE28",
"8. c #5BAE28",
"9. c #5AAE29",
"0. c #5CAE28",
"q. c #5CAF28",
"w. c #5DAF28",
"e. c #5EAF28",
"r. c #5FB026",
"t. c #5FB027",
"y. c #60AF25",
"u. c #60B025",
"i. c #63B125",
"p. c #60B026",
"a. c #61B026",
"s. c #61B127",
"d. c #62B126",
"f. c #63B126",
"g. c #64B125",
"h. c #65B224",
"j. c #65B225",
"k. c #66B224",
"l. c #67B224",
"z. c #67B324",
"x. c #66B225",
"c. c #67B325",
"v. c #64B226",
"b. c #6AB322",
"n. c #6BB422",
"m. c #6AB423",
"M. c #6BB423",
"N. c #6FB520",
"B. c #6EB521",
"V. c #6FB521",
"C. c #6CB422",
"Z. c #6DB422",
"A. c #6DB522",
"S. c #6CB523",
"D. c #6EB522",
"F. c #6EB523",
"G. c #6EB623",
"H. c #68B324",
"J. c #69B324",
"K. c #68B325",
"L. c #69B424",
"P. c #6AB424",
"I. c #6BB524",
"U. c #70B520",
"Y. c #70B521",
"T. c #71B620",
"R. c #70B621",
"E. c #71B621",
"W. c #72B620",
"Q. c #73B720",
"!. c #72B621",
"~. c #72B721",
"^. c #70B622",
"/. c #71B622",
"(. c #71B722",
"). c #72B722",
"_. c #74B720",
"`. c #75B820",
"'. c #74B821",
"]. c #75B821",
"[. c #76B920",
"{. c #77B920",
"}. c #77B921",
"|. c #78B920",
" X c #78BA20",
".X c #79BA20",
/* pixels */
"                                                                                                                            ",
"                                                      9 9 9 H 9                                                             ",
"                                                    9 9 9 9 9 9 9                                                           ",
"                                                  9 9 9 9 9 9 9 H H                                                         ",
"                                                  9 9 9 9 ( ( ( 9 9 9                                                       ",
"                                                9 9 9 9 9 ( ).( 9 9 H 9                                                     ",
"                                                H H 9 9 9 ( .X1.9 9 9 9 9                                                   ",
"                                                H H 9 9 9 ( ).9.9 9 9 9 9                                                   ",
"                                                  H 9 9 9 9 L.L.9 9 9 9 H                                                   ",
"                                                  9 9 9 9 9 9.).9 9 9 9 9                                                   ",
"                                                    9 9 H 9 9.).( 9 9 9                                                     ",
"                                                      9 H 9 1..X( 9 9                                                       ",
"                                                        9 9 1.).( 9                                                         ",
"                                                        9 9 1.).( 9                                                         ",
"                                                        9 9 1.).( 9                                                         ",
"                                                        H 9 1.).( 9 9                                                       ",
"          9 9 9 9                                     9 9 9 1.).( 9 H 9                                                     ",
"        9 9 9 9 9 9 9                               9 9 9 9 ( ).( 9 H 9 9                                                   ",
"      9 9 9 9 H 9 9 9 9                           9 9 9 9 9 ( @ 1.9 H H 9 H                                 9 9 9 9 9       ",
"      9 9 9 ( ( H H 9 9 9                       9 9 9 9 9 9 9 ).9.9 9 H 9 9                           9 9 9 9 9 9 9 9 9     ",
"    9 9 9 9 ( ).( 9 9 9 9 9                     9 9 9 9 H 9 9 L.' 9 9 9 9 9                         9 9 H 9 9 9 9 9 9 9     ",
"    9 9 9 9 ( % 9.9 H H 9 9                     9 9 9 9 9 9 9 L.s.9 9 9 9                         9 9 9 H 9 ( ( 9 9 9 9 9   ",
"    9 9 9 9 9 s.L.9 H H 9 H                     9 9 9 9 H 9 9 L.' 9 9 9                         9 9 9 9 H 9 s.s.9 9 9 9 9   ",
"    H 9 9 9 9 1.% 1.9 H H 9                     9 9 9 9 H 9 H ).' 9 9                           9 9 9 9 9 9 s.L.9 9 9 H H   ",
"    9 9 9 9 9 9 L.s.9 9 9 9                     9 9 9 9 9 9 9 L.s.9 H                           9 H 9 9 9 9 L.s.9 9 9 H H   ",
"      9 9 9 9 9 1.: 1.9 9 9                       9 9 H 9 9 9 ).' 9                             H H 9 H 9 ( ).1.9 H 9 9 H   ",
"      9 H H 9 H H L.s.9 9 9                           H 9 9 ( ).9.9                             H H H H 9 1..X( 9 H 9 9     ",
"      9 H H 9 9 9 1.% ( 9 9 H                         9 H 9 ( : 1.9 9                           9 H H 9 9 L.L.H 9 9 9 9     ",
"        H 9 9 9 9 9 ).' 9 9 9                           9 9 ( ).1.H H H                         9 H H 9 1.: ( 9 9 9 9       ",
"          9 9 9 9 9 ' L.( 9 9 9                         H 9 ( ).1.9 H H 9                       9 H H ( ).s.9 9 9 9         ",
"            9 9 9 9 ( L.s.9 9 9 9                     9 9 9 ( .X1.9 9 9 9 9                     9 9 9 s..X( 9 9 9 H         ",
"                9 9 9 1.% ( 9 9 9 9                   9 9 9 ( .X1.9 9 9 9 9 9               9 9 9 9 ( .Xe.9 9 9             ",
"                    9 9 L.s.9 9 9 9 9 9             9 9 9 9 ( .X1.9 9 H 9 9 9           9 9 9 9 9 9 e.: ( 9                 ",
"                      9 1.: ( 9 9 9 9 H 9         9 9 9 9 9 ( ).1.9 9 H 9 9 9         H 9 9 H 9 9 ( ).s.                    ",
"                        F ).L.9 9 9 9 9 9 9       9 9 9 9 9 ( ).9.9 9 9 9 9           9 9 9 H H 9 ' : (                     ",
"                        9 1.: 9.9 9 9 9 H 9       9 9 9 9 9 ( ).9.9 9 9 9 9         9 9 9 9 H 9 ( .X9.9                     ",
"                          9 e.).( H H H 9 9       H 9 9 9 9 ( ).9.9 9 9 9           9 9 9 9 H ( L.).( 9                     ",
"                          9 ( ).s.H H H 9 9       9 9 9 9 9 ( ).9.9 9 9             9 9 9 9 9 s.: 1.9 H                     ",
"                          9 9 9.: 1.9 9 9 9         9 9 9 H H L.e.9 H 9             9 9 H 9 ( : 9.9 9 9                     ",
"                          9 9 9 s.).( 9 9 9             9 9 H ).s.9 9               9 9 9 ( ).s.9 9 9 9                     ",
"                        9 9 9 9 ( L.L.9 9 H H             9 9 L.s.9 9               9 9 9 s.).( 9 9 9 9                     ",
"                        9 9 9 9 9 ( ).s.H H H               9 L.s.9 9               9 9 1.: 1.9 9 9 9 9                     ",
"                        9 9 9 9 9 9 1.: 1.9 9               9 L.s.9 9 9             9 ( % s.9 9 9 9 9 9                     ",
"                        9 9 9 9 9 9 9 s.).( 9 9             9 L.L.9 9 9           9 ( ).L.( 9 9 9 9 9                       ",
"                            9 9 9 9 9 ( ).L.H 9 9           9 L.s.9 9 H 9         9 s.L.F 9 9 9 9                           ",
"                                9 9 9 9 1.: 1.9 9 9 9 9     9 L.s.9 H H 9     H 9 9.@ F 9 9                                 ",
"                                      9 9 s.: ( 9 9 9 9 9 9 H ).s.9 H H 9 9 9 9 1.% 9.9 9 9                                 ",
"                                          ( L.L.( 9 9 9 9 9 ( ).t.9 9 9 9 9 9 9.% ' 9 9 9                                   ",
"                                            ( ).s.H 9 9 9 9 H L.s.9 9 9 9 9 ) % 9.H H H H                                   ",
"                                            9 1.).s.( 9 9 9 H ).s.9 9 9 9 9.: 9.9 H H 9 9                                   ",
"                                            9 9 1.: t.9 9 9 9 ).' 9 9 9 ' : t.H H H 9 9 9                                   ",
"                                            9 9 9 9.: 9.9 9 9 ).' 9 9 e.: 9.9 9 9 9 9 9                                     ",
"                                            H 9 9 9 9.).L.( 9 L.' 9 9..Xe.9 9 9 9 9 9 9                                     ",
"                                                9 9 9 1.).' 9 L.t.9 9.9.9 9 9 9 9 9 9                                       ",
"                                                    9 9 9 9 9 L.s.9 H H H 9 9 9 9 9                                         ",
"                                                        9 9 9 s.L.9 H 9 9                                                   ",
"                                                            9 9.).( 9 H                                                     ",
"                                                              ( ' F 9 H                                                     ",
"                                                              9 9 9 H 9                                                     ",
"                                                            9 9 9 9 9 9                                                     ",
"                                                              9 9 9 9 6                                                     ",
"                                                                        .                                                   ",
"                                                                                                                            ",
"                                                                                                                            "
};
