/* XPM */
static char *greystone[] = {
/* columns rows colors chars-per-pixel */
"64 64 9 1 ",
"  c gray12",
". c #3B3B3B",
"X c #4F4F4F",
"o c #737373",
"O c #8B8B8B",
"+ c #9B9B9B",
"@ c #ADADAD",
"# c #D5D5D5",
"$ c #EFEFEF",
/* pixels */
" X . X . . . . . . . . . . . . . . .   . . X . . . . . . . . X .",
"XXXXXXXXXXX#$###$###$####$# .O@@######@#@oX .XXXX.XXX.XXXXXXXXXX",
"XXXXXXXXXXX####@######@###O .o#@O@OOOOOO@X. .oOOOOOOOooXXXXXXXXX",
"OOOOOOOO XX$##@#@#@@#@@##Oo .@#@O@O@O@O@OX. .O######@@@OoOOOoOOO",
"####@@OO XX##@@+@O@@@@+@+oX XO@OOO@@@@OOoXX .O$$@#@#$###########",
"@@@@+@oo XX$@O@@@@+@O@O@@oX .X@O@@OOOO@oXX. .O#@@O@O@@+OO@O@o@OO",
"@O++@Ooo X.$#@O@O@O+O+O+@OX .XoOo@O@@o@o... .o#@O@O@OOO@OO+O@+O@",
"#@O@O+oX .X$#OOO@@+OOOO@OXX .XXO@@+OOO@o... .O#@@OOo@OOO@O@@Oo@+",
"@@@O+oXX  X@@@@@O@O+OOOO@oX  XX.o........  ..o#$O@Oo+o+O@OOo@@oO",
"OOoOoX.. .X@$@O@OOOOOOO@OXo  .X....... .   XXX#@OOOO+++OO@O@@O@O",
"ooooXX..  XO#O@OOOOO@O@O@oXX .X.       . . XX.#@O@O@OOOoooXXoXoX",
"XXX.X    ..o$@o@oOo@@OooOoX. ..XXXooO@+@@Oo.XX@OoooXoXXXX.XXXXXX",
"     . . .XX##OOO++OO@oO@OX. .Xo@@#$$###+oX XXOooXXXX...... . . ",
" . .  . ..XX@#O@OoO@OO+OooX.  .@@$#@O@O@Oo. .......X...         ",
"..........XXO@@o@+OoOoO@OXX.  .@#@@OOOOOOX. .  .  .  . .........",
"XX...... .XXo#O@+O@+@O@O@XoX  X@$@OO@O@o@X. .XXXXX X.XXX.X.XX.X.",
"++O+OOO@O  XX#@@OO++oOOOOoXX  X@$OO@@O@OOX.  o@##XXXoO+O++OO+O++",
"######@@o. XXO@O@OoOOO@OoOoX  X@#@@Oo@O@OX. .@##@ Xo##$#$#$$$#$#",
"@OO@O@@oo. XXoO@O@@o@o+oXoXX  X@@@OooooXXX. .##+O XO##@@@@@@@@@@",
"@O+O@oOoo. XXX+OooooXXoXoXX   .OOoOo.....X. X$@OO X+$@@+@O@O+O++",
"@OO@O@@oX. XXXoXXXXXXX.        Oo...        o#@@o XO#@O+O+O+oOOo",
"@+@O@oOoX. XX. . .            ..X.     .  . O#@@O XO#O@+@O@O+O++",
"O@ooOO@oX. .XXX.        XXXXXXXOOO@@OOOoX .o@$@OO XO@@O+O+O@oOOO",
"OOOoO@ooX. .O#$###@@OX.Xoo@@@@#$$##$#$#Oo .o##O@o Xo@@+O@O@Ooo+O",
"OO@@OOOXX. .##@OO+@O+.XXo#$###@@#@#@#@#oX .O$@+Oo Xo#O@OOOOO@O@O",
"+@OO@ooXX. .#OO+@@O+@ XX+$#O@O@Oo@+@OOoo. .O$@O@X XXOoXXXXoXooOo",
"oXoXoXX... .#@@@O@O@X XX+$@O@Oo@@OOO@O@XX .O$@@OX X ..X.XXXXXXXX",
"XXX...     .$o@O@@+oX X.+$O@O+@OOoO@OOOXX .O$o@OX X.         .XX",
"       . XX.#@+O@O@oX .X+$OO@OOO+oOOO@OXX .o$@@OX X....... .    ",
".oXoO+OoOOX #@o+O@OooX .O$@OOOoOoO@oOO@XX .O$O@@X XX.XXXXXXXX...",
"oO@$#$###@o $@@OoO@OX. XO$@OO@O@oOOoO@OX. .O#OO@X X@$#@OoXX.XXXX",
"X@###@@@O@. $OO@oO@@oX Xo##@OOoOoo@O@OOX. .O$@OOX X#OO@$##$##O.X",
"o$@@@o@O@Oo $+@O@@o@oX .X#$@@OO@O@ooO@oX. .O#O@OX X$OO@@OO@OOO.X",
"o#@+O@O@O@o $OO@@O@OoX  X@$@@@OOoOOo@OoX. XO#@@oX X#@@oO@@O@OX.X",
"X$@O@O@@o@X $@@@OOO@XX .XO$@@O@OO@O@O@XX .XO#+O@X X#@O@@oO@O@X.X",
"o#@@OO++@OX #@o+o@@+oX  Xo#@@Oo+OOOOOOo.  XO#O@XX X@@+@O@OO@@X..",
"X#@O@@O@o@X ##O+@OOOXX  XX@#@o@O@O@oOoX. .Xo@oX....@@O@+O@OO@XX.",
"o##@+O@O@OX @#o@OOO@oX  .X+@@OooXXXX.... ..X.....X oXXXXXXXXXX..",
"X$@O@@O@o@X +#+o@@OOoX  .XXOOoXXX        .XXXXXXXXX            .",
"o#@OO+@O@OX o$@+@OO@oX   XX. .    . .  . ..XXXXXXXXXX...........",
"o#@@@O+@O@X X$O@OO@OoX  .XX......XXX.XXXXXXXXoooooOooOoooOoooo.X",
"o#@O+@o@OoX X$@OOoO@oX   .ooooooooooOoooOOO+@@@#@#@#@@#@#@#@#o.X",
"o#@@@O@O@X  X$OO@OOooX.  .o#@#@#@##@#@#@#@#$$$$$$$$$$$$$#$##Oo X",
"X#@O@O@@OX .X$O@o@O@XX.   o@#$$$$$$#$$#$$$$$#$##@#@#@@@#@@#@oX X",
"o@@@O@OOOX .X#@@O@OOoX.   o##@#@#@#@@#@@@@@@@++OO@O@OOO@O@O@oX..",
"X#OO@OoooX .X#OO@O@OoX.   o@$@OOoOOO@o@@O+O@@@Oo+O@@+O@O@@@OoX .",
".@@@@OXXX  X.@@OO@OooX.   X##@OOO@O@O@@oO+@@O@O+OOoO++O@o@O@oX..",
"XoOoXXXXX ...+O@OOOooX.    @$#@@OOOOoOO@O@O@OoOO@oO@OOoOo+OOoX .",
"X.   XXXX ..XooXooXoXX.   .@##OO@O@oO@Ooo++O@O@OO@OOoOOO@OoOoX .",
"XXXX.    ..............    O#@@OO@O@oOOOO+OOo@OOOOOOO@OOOOOooX .",
".XXXXXX.  .X..            .o+ooooooo@O@@OOOOO+oOO@O@OO@OOOO+oX .",
"Xo@@@@OOoXXX..  .  .  . . .X... . X XoooOoooOoOooOooOooooOoOoX .",
".@####$#@@@OoXXX.....X.....XXX...... XXXXXXXXXXXXXXXXXXXXXXXX . ",
"X@#@@O@#$#$@@@@@@@@OOOoooooXXXXXX.X.. . X . . X X             .X",
".@#@@@@@O@@$#$#####$#$$###@@@@@@oXX..........  . . . . . . ...XX",
"X@#@o@Oo@+Oo@O@O@O@@o@O@@@#####@O.XXXXX... .........X.........XX",
"X@#@@@O@OOO+@OO@OoO@oOOO@O@O@@@oo .XX@##OoXX.XXX.X..XX.XX.X.XXXX",
"X@@@O@oo+@O@@+Oo@oOo@O@O@O@o@@@XX ..X#@@$$$#@XXX@$########@+oXXX",
".@ooXoXooXoXXooXXoXoXoXXoXoXXooXX. .X#@@@@@@@oXo$O@@O@O@O@O@#@ X",
"XOo.................X.............  X@@@@+oOOoX@@O@O@@@O@O@O@X X",
"..                                  X.X.XoXooXX$+@+@@O+@+@@OOX X",
"XX... .  .  .  . .  .  .  .  .  . . XXX..     .XXXXXXXXXXXXXXX X",
"XXXXX..XXXXX.........................XXXX......XX              o",
"X..............................................................."
};
